<svg width="549" height="186" viewBox="0 0 549 186" fill="none" xmlns="http://www.w3.org/2000/svg">
<path d="M0.507029 186H8.62703C7.46703 164.424 7.46703 156.536 7.46703 144.24V100.16H28.347C66.395 100.16 98.643 89.72 98.643 50.28C98.643 10.84 66.395 0.399997 28.347 0.399997H0.507029C1.66703 21.976 1.66703 29.864 1.66703 42.16V144.24C1.66703 156.536 1.66703 164.424 0.507029 186ZM7.46703 97.84V2.72H28.347C59.435 2.72 91.683 12 91.683 50.28C91.683 88.56 59.435 97.84 28.347 97.84H7.46703ZM258.538 42.16C258.538 29.864 258.538 21.976 259.698 0.399997H255.058C256.218 21.976 256.218 29.864 256.218 42.16V177.416L135.81 0.399997H131.17C132.33 21.976 132.33 29.864 132.33 42.16V144.24C132.33 156.536 132.33 164.424 131.17 186H135.81C134.65 164.424 134.65 156.536 134.65 144.24V8.984L255.058 186H259.698C258.538 164.424 258.538 156.536 258.538 144.24V42.16ZM400.245 21.976C404.885 13.624 407.205 9.44799 413.237 0.399997H409.061C404.653 9.44799 402.565 13.16 397.461 22.208L354.077 100.16L311.157 22.208C306.285 13.624 303.501 9.44799 300.485 0.399997H290.045C296.773 9.44799 299.557 13.392 304.429 22.208L349.205 103.408V144.24C349.205 156.536 349.205 164.424 348.045 186H356.165C355.005 164.424 355.005 156.536 355.005 144.24V103.408L400.245 21.976ZM535.291 164.888L496.083 91.808L535.291 21.512C539.931 13.16 541.323 9.44799 547.819 0.399997H543.179C539.003 9.44799 536.915 13.16 532.275 21.512L494.459 88.792L458.267 21.512C453.859 13.16 451.771 9.44799 448.523 0.399997H438.779C445.739 9.44799 447.595 13.16 452.003 21.512L491.211 94.592L452.003 164.888C447.363 173.24 445.507 176.952 439.243 186H443.883C448.291 176.952 450.379 173.24 455.019 164.888L492.835 97.376L529.027 164.888C533.435 173.24 535.059 176.952 538.771 186H548.515C541.555 176.952 539.699 173.24 535.291 164.888Z" fill="url(#paint0_linear_578_1326)"/>
<defs>
<linearGradient id="paint0_linear_578_1326" x1="271" y1="-53" x2="271" y2="295" gradientUnits="userSpaceOnUse">
<stop stop-color="#ECA94A"/>
<stop offset="1" stop-color="#FFD966"/>
</linearGradient>
</defs>
</svg>
