<svg width="70" height="70" viewBox="0 0 70 70" fill="none" xmlns="http://www.w3.org/2000/svg">
<path d="M30.1719 19.5496V0H38.5216C40.2321 0 41.6673 0.280007 42.8269 0.840022C43.9939 1.40004 44.8745 2.17006 45.4689 3.15008C46.0704 4.12375 46.3712 5.23105 46.3712 6.47199C46.3712 7.72566 46.0704 8.83933 45.4689 9.81299C44.8673 10.7867 43.9794 11.5535 42.8052 12.1135C41.631 12.6672 40.185 12.944 38.4673 12.944H32.9334V10.0325H37.9236C38.9239 10.0325 39.7429 9.87981 40.3807 9.57435C41.0186 9.26889 41.4897 8.84887 41.7941 8.31431C42.1058 7.77975 42.2616 7.16565 42.2616 6.47199C42.2616 5.77834 42.1058 5.16741 41.7941 4.63922C41.4897 4.11102 41.0149 3.70055 40.3699 3.40782C39.732 3.10872 38.9094 2.95917 37.9019 2.95917H34.2054V19.5496H30.1719Z" fill="white"/>
<path d="M55.2901 39.1504L60.1934 46.3097H60.3674L65.2924 39.1504H69.8913L63.031 48.9252L70 58.7H65.325L60.3674 51.5884H60.1934L55.2358 58.7H50.5825L57.6167 48.9252L50.6695 39.1504H55.2901Z" fill="white"/>
<path d="M18.2977 39.1504V58.7H14.7099L4.21836 45.3837H4.03353V58.7H0V39.1504H3.60952L14.0902 52.4762H14.2859V39.1504H18.2977Z" fill="white"/>
<path fill-rule="evenodd" clip-rule="evenodd" d="M32.5316 40.9775L7.01855 18.5769L9.84228 16.0977L34.6392 37.8695L59.4362 16.0977L62.2599 18.5769L36.525 41.1723L36.525 70.0009H32.5316L32.5316 40.9775Z" fill="white"/>
</svg>
